<?xml version="1.0" encoding="UTF-8"?>
<svg width="26px" height="25px" viewBox="0 0 26 25" version="1.1" xmlns="http://www.w3.org/2000/svg" xmlns:xlink="http://www.w3.org/1999/xlink">
    <!-- Generator: Sketch 46.2 (44496) - http://www.bohemiancoding.com/sketch -->
    <title>Shape</title>
    <desc>Created with Sketch.</desc>
    <defs>
        <linearGradient x1="50%" y1="0%" x2="50%" y2="100%" id="linearGradient-1">
            <stop stop-color="#F8B818" offset="0%"></stop>
            <stop stop-color="#F6DD00" offset="100%"></stop>
        </linearGradient>
    </defs>
    <g id="archive" stroke="none" stroke-width="1" fill="none" fill-rule="evenodd">
        <g id="Text-Twist-reward-two1" transform="translate(-415.000000, -211.000000)" fill-rule="nonzero" fill="url(#linearGradient-1)">
            <g id="favourites-filled-star-symbol-copy" transform="translate(415.000000, 211.000000)">
                <path d="M24.868776,8.39771329 L17.7087969,7.72262307 C17.2574386,7.68170851 16.867424,7.39530659 16.6829826,6.96570372 L14.1184467,0.767147987 C13.7081209,-0.255715996 12.2512594,-0.255715996 11.8409336,0.767147987 L9.29691399,6.96570372 C9.13278369,7.39530659 8.72245795,7.68170851 8.27109963,7.72262307 L1.11091536,8.39771329 C0.0440684223,8.49999969 -0.386773611,9.82972287 0.413361594,10.5457277 L5.80914515,15.2713593 C6.15792203,15.5782184 6.30153605,16.0282786 6.19895461,16.4783388 L4.57816791,23.1062928 C4.33197247,24.1498186 5.46036827,25.0088198 6.40411748,24.4566778 L12.3743571,20.9582784 C12.7641665,20.7332483 13.2360411,20.7332483 13.6258506,20.9582784 L19.5962954,24.4566778 C20.5400446,25.0088198 21.6684404,24.1702759 21.4220398,23.1062928 L19.8217694,16.4783388 C19.7191879,16.0282786 19.8628019,15.5782184 20.2115788,15.2713593 L25.6073624,10.5457277 C26.3869813,9.82972287 25.935623,8.49999969 24.868776,8.39771329 Z" id="Shape"></path>
            </g>
        </g>
    </g>
</svg>