<?xml version="1.0" encoding="UTF-8"?>
<svg width="16px" height="16px" viewBox="0 0 16 16" version="1.1" xmlns="http://www.w3.org/2000/svg" xmlns:xlink="http://www.w3.org/1999/xlink">
    <!-- Generator: Sketch 46.2 (44496) - http://www.bohemiancoding.com/sketch -->
    <title>favourites-filled-star-symbol copy 9</title>
    <desc>Created with Sketch.</desc>
    <defs>
        <linearGradient x1="50%" y1="0%" x2="50%" y2="100%" id="linearGradient-1">
            <stop stop-color="#F8B818" offset="0%"></stop>
            <stop stop-color="#F6DD00" offset="100%"></stop>
        </linearGradient>
    </defs>
    <g id="graph" stroke="none" stroke-width="1" fill="none" fill-rule="evenodd" opacity="0.286798007">
        <g transform="translate(-762.000000, -126.000000)" id="favourites-filled-star-symbol-copy-9" fill-rule="nonzero" fill="url(#linearGradient-1)">
            <g transform="translate(762.000000, 126.000000)">
                <path d="M15.3038622,5.16782357 L10.8977212,4.75238343 C10.6199622,4.72720523 10.3799532,4.5509579 10.2664508,4.2865869 L8.68827487,0.472091069 C8.43576672,-0.15736369 7.53923653,-0.15736369 7.28672838,0.472091069 L5.72117784,4.2865869 C5.62017458,4.5509579 5.36766643,4.72720523 5.08990746,4.75238343 L0.683640222,5.16782357 C0.0271190291,5.23076904 -0.23801453,6.04906023 0.254376365,6.48967856 L3.57485855,9.39775954 C3.78949048,9.58659597 3.87786834,9.86355606 3.8147413,10.1405162 L2.8173341,14.2192571 C2.66582921,14.8614268 3.36022663,15.3900429 3.94099537,15.0502633 L7.61498897,12.8974021 C7.85487172,12.7589221 8.14525609,12.7589221 8.38513884,12.8974021 L12.0592587,15.0502633 C12.6400274,15.3900429 13.3344249,14.8740159 13.1827937,14.2192571 L12.1980119,10.1405162 C12.1348849,9.86355606 12.2232627,9.58659597 12.4378947,9.39775954 L15.7583769,6.48967856 C16.2381423,6.04906023 15.9603834,5.23076904 15.3038622,5.16782357 Z" id="Shape"></path>
            </g>
        </g>
    </g>
</svg>